<svg width="835" height="1011" viewBox="0 0 835 1011" fill="none" xmlns="http://www.w3.org/2000/svg">
<g filter="url(#filter0_f_7_132)">
<path d="M792.089 251.276C956.093 293.194 869.843 425.884 838.457 548.686C912.362 664.403 911.115 811.862 747.111 769.945C583.108 728.028 432.401 499.047 463.788 376.245C495.174 253.443 628.086 209.359 792.089 251.276Z" fill="#DD7F20"/>
<path d="M1080.44 1157.55C1113.75 1265.36 842.739 1124.76 710.821 1165.52C578.904 1206.28 523.779 1296.93 490.468 1189.13C457.158 1081.32 531.634 897.475 663.551 856.715C795.469 815.955 1047.13 1049.74 1080.44 1157.55Z" fill="#E79D5B"/>
<path d="M497.801 585.557C521.434 622.56 550.907 804.375 499.94 836.927C448.973 869.478 345.436 798.447 321.803 761.444C298.17 724.44 311.757 610.048 362.725 577.496C413.692 544.945 474.167 548.554 497.801 585.557Z" fill="#D9D9D9"/>
</g>
<defs>
<filter id="filter0_f_7_132" x="210.554" y="135.847" width="972.7" height="1204.2" filterUnits="userSpaceOnUse" color-interpolation-filters="sRGB">
<feFlood flood-opacity="0" result="BackgroundImageFix"/>
<feBlend mode="normal" in="SourceGraphic" in2="BackgroundImageFix" result="shape"/>
<feGaussianBlur stdDeviation="50" result="effect1_foregroundBlur_7_132"/>
</filter>
</defs>
</svg>
