<svg width="1452" height="1491" viewBox="0 0 1452 1491" fill="none" xmlns="http://www.w3.org/2000/svg">
<g filter="url(#filter0_f_7_132)">
<path d="M840.359 251.277C1004.36 293.194 918.113 425.885 886.727 548.686C960.633 664.403 959.385 811.862 795.381 769.945C631.378 728.028 480.671 499.047 512.058 376.245C543.444 253.443 676.356 209.359 840.359 251.277Z" fill="#DD7F20"/>
<path d="M1063.42 1161.73C1096.73 1269.54 825.716 1128.94 693.798 1169.7C561.88 1210.46 506.756 1301.11 473.445 1193.3C440.134 1085.49 514.61 901.65 646.528 860.89C778.446 820.13 1030.11 1053.92 1063.42 1161.73Z" fill="#E79D5B"/>
<path d="M475.587 613.001C499.22 650.004 528.693 831.819 477.726 864.37C426.759 896.922 323.222 825.891 299.589 788.887C275.956 751.884 289.544 637.491 340.511 604.94C391.478 572.388 451.953 575.997 475.587 613.001Z" fill="#D9D9D9"/>
</g>
<defs>
<filter id="filter0_f_7_132" x="188.34" y="135.847" width="977.89" height="1208.37" filterUnits="userSpaceOnUse" color-interpolation-filters="sRGB">
<feFlood flood-opacity="0" result="BackgroundImageFix"/>
<feBlend mode="normal" in="SourceGraphic" in2="BackgroundImageFix" result="shape"/>
<feGaussianBlur stdDeviation="50" result="effect1_foregroundBlur_7_132"/>
</filter>
</defs>
</svg>
